<?xml version="1.0" standalone="no"?>
<!DOCTYPE svg PUBLIC "-//W3C//DTD SVG 20010904//EN"
 "http://www.w3.org/TR/2001/REC-SVG-20010904/DTD/svg10.dtd">
<svg version="1.0" xmlns="http://www.w3.org/2000/svg"
 width="500.000000pt" height="500.000000pt" viewBox="0 0 500.000000 500.000000"
 preserveAspectRatio="xMidYMid meet">

<g transform="translate(0.000000,500.000000) scale(0.100000,-0.100000)"
fill="#000000" stroke="none">
<path d="M2717 2933 c-4 -3 -7 -35 -7 -70 l0 -63 -54 0 c-67 0 -112 -28 -144
-90 -40 -78 -18 -168 51 -210 33 -21 104 -26 142 -11 12 5 25 4 33 -2 10 -8
20 -4 38 14 21 22 23 28 14 59 -6 19 -10 113 -10 207 l0 173 -28 0 c-16 0 -32
-3 -35 -7z m-29 -199 c21 -6 22 -12 22 -94 l0 -88 -28 -7 c-57 -12 -122 39
-122 96 0 33 42 86 73 92 12 2 24 5 27 6 3 0 15 -2 28 -5z"/>
<path d="M1935 2876 c-72 -32 -124 -115 -125 -199 -1 -173 200 -266 334 -155
53 43 76 95 76 168 0 125 -74 200 -197 200 -32 -1 -71 -7 -88 -14z m169 -95
c29 -29 31 -36 31 -102 0 -68 -1 -72 -34 -101 -31 -27 -39 -30 -87 -26 -64 5
-98 32 -115 89 -20 66 11 146 65 170 41 17 106 4 140 -30z"/>
<path d="M3420 2855 l0 -35 50 0 50 0 0 -170 0 -170 40 0 40 0 0 170 0 170 50
0 50 0 0 35 0 35 -140 0 -140 0 0 -35z"/>
<path d="M3730 2886 c0 -2 5 -17 11 -33 6 -15 38 -104 70 -198 l59 -170 35 -3
c31 -3 35 0 41 25 8 37 27 96 74 228 60 170 59 157 8 153 l-43 -3 -35 -127
c-30 -106 -49 -158 -50 -137 0 2 -20 63 -43 134 l-43 130 -42 3 c-23 2 -42 1
-42 -2z"/>
<path d="M2295 2764 c-3 -20 -3 -92 1 -160 l7 -124 33 0 34 0 0 115 c0 111 1
115 25 131 14 9 34 14 44 11 21 -5 31 10 31 44 0 15 -7 19 -38 19 -21 0 -43
-5 -50 -12 -9 -9 -12 -9 -12 0 0 7 -14 12 -34 12 -31 0 -34 -3 -41 -36z"/>
<path d="M2940 2781 c-72 -38 -102 -146 -61 -221 25 -47 89 -80 157 -80 81 0
104 12 104 55 0 33 -1 35 -21 24 -36 -19 -117 -14 -148 8 -14 11 -27 27 -29
36 -3 14 12 17 110 19 111 3 113 3 116 28 6 42 -17 98 -52 125 -41 32 -123 35
-176 6z m134 -63 c29 -42 22 -48 -59 -48 -82 0 -90 7 -53 47 29 32 91 32 112
1z"/>
<path d="M3240 2640 l0 -160 35 0 35 0 0 115 c0 109 1 115 23 130 13 8 35 14
48 13 20 -3 24 2 27 30 3 30 1 32 -28 32 -17 0 -40 -5 -51 -10 -13 -7 -19 -7
-19 0 0 5 -16 10 -35 10 l-35 0 0 -160z"/>
<path d="M1105 2768 c-8 -23 -10 -156 -2 -151 4 2 7 15 7 28 0 27 15 42 24 23
3 -7 4 14 3 46 -1 37 -7 61 -14 64 -7 2 -15 -2 -18 -10z"/>
<path d="M1494 2768 c-5 -7 -10 -79 -12 -160 l-4 -148 26 0 26 0 0 149 c0 116
-3 151 -14 160 -11 9 -16 9 -22 -1z m26 -92 c0 -7 -7 -19 -15 -26 -12 -10 -15
-9 -15 7 0 11 3 23 7 26 11 12 23 8 23 -7z"/>
<path d="M1126 2641 c-4 -5 -2 -21 4 -36 20 -53 6 -145 -19 -120 -5 6 -11 26
-14 45 -3 27 -4 23 -5 -17 -2 -53 -2 -53 28 -53 l30 0 0 89 c0 82 -9 116 -24
92z"/>
<path d="M1907 2383 c-4 -3 -7 -48 -7 -100 0 -86 1 -93 20 -93 19 0 20 7 20
100 0 77 -3 100 -13 100 -8 0 -17 -3 -20 -7z"/>
<path d="M2180 2365 c0 -14 -4 -25 -10 -25 -5 0 -10 -7 -10 -15 0 -8 5 -15 10
-15 6 0 10 -22 10 -49 0 -55 15 -74 55 -69 30 4 37 21 9 27 -25 4 -34 19 -34
59 0 25 4 32 20 32 11 0 20 7 20 15 0 8 -7 15 -15 15 -8 0 -17 11 -21 25 -3
14 -12 25 -20 25 -8 0 -14 -10 -14 -25z"/>
<path d="M2940 2375 c0 -8 -6 -25 -12 -36 -10 -17 -10 -23 0 -26 7 -3 12 -23
12 -52 0 -54 12 -71 52 -71 20 0 28 5 28 18 0 13 -7 18 -22 18 -20 -1 -23 5
-26 42 -3 37 -1 42 17 42 27 0 27 26 1 33 -12 3 -20 14 -20 26 0 12 -6 21 -15
21 -8 0 -15 -7 -15 -15z"/>
<path d="M2000 2264 c0 -58 3 -74 15 -74 10 0 15 15 17 58 3 53 5 57 28 57 23
0 25 -4 28 -57 3 -50 6 -58 22 -58 17 0 20 7 20 49 0 27 -4 61 -10 75 -9 24
-14 26 -65 25 l-55 -2 0 -73z"/>
<path d="M2324 2332 c-40 -26 -40 -101 1 -128 32 -21 99 -15 103 8 3 15 -2 17
-26 12 -30 -6 -72 9 -72 26 0 6 25 10 55 10 46 0 55 3 55 18 0 36 -29 62 -68
62 -20 0 -42 -4 -48 -8z m64 -24 c20 -20 14 -28 -23 -28 -19 0 -35 4 -35 8 0
12 22 32 35 32 6 0 16 -5 23 -12z"/>
<path d="M2474 2326 c-3 -7 -4 -40 -2 -72 2 -47 7 -59 21 -62 14 -3 17 5 17
53 0 50 2 56 26 65 14 6 22 14 19 20 -9 15 -75 12 -81 -4z"/>
<path d="M2580 2264 c0 -58 3 -74 15 -74 10 0 15 15 17 58 3 53 5 57 28 57 23
0 25 -4 28 -57 3 -50 6 -58 22 -58 17 0 20 7 20 49 0 27 -4 61 -10 75 -9 24
-14 26 -65 25 l-55 -2 0 -73z"/>
<path d="M2767 2322 c-27 -30 -22 -87 10 -112 33 -26 96 -25 101 2 3 15 -2 17
-27 12 -30 -6 -61 8 -61 27 0 5 23 9 50 9 46 0 50 2 50 24 0 14 -7 32 -16 40
-22 22 -87 21 -107 -2z m81 -25 c3 -13 -3 -17 -27 -17 -20 0 -31 5 -31 14 0
29 53 32 58 3z"/>
<path d="M3140 2313 c-25 -32 -20 -78 12 -105 31 -27 98 -22 98 8 0 10 -8 12
-30 8 -38 -8 -60 10 -60 48 0 30 14 40 58 42 14 1 27 7 30 14 2 8 -10 12 -41
12 -37 0 -49 -5 -67 -27z"/>
<path d="M3297 2322 c-9 -10 -20 -32 -23 -49 -13 -65 79 -110 126 -63 25 25
27 91 4 114 -22 22 -87 21 -107 -2z m83 -26 c28 -35 -11 -93 -47 -70 -19 12
-28 46 -19 70 7 18 50 18 66 0z"/>
<path d="M3460 2265 c0 -69 2 -75 21 -75 18 0 20 4 14 43 -7 49 11 84 39 74
12 -5 16 -20 16 -62 0 -41 4 -55 15 -55 10 0 15 15 17 58 3 49 6 57 23 57 17
0 20 -8 23 -57 3 -50 6 -58 22 -58 17 0 20 7 20 49 0 27 -4 61 -9 74 -9 24
-13 25 -105 26 l-96 1 0 -75z"/>
<path d="M3050 2210 c0 -13 7 -20 20 -20 13 0 20 7 20 20 0 13 -7 20 -20 20
-13 0 -20 -7 -20 -20z"/>
</g>
</svg>
